<?xml version="1.0" encoding="UTF-8"?>
<!DOCTYPE svg PUBLIC "-//W3C//DTD SVG 1.1//EN" "http://www.w3.org/Graphics/SVG/1.1/DTD/svg11.dtd">
<!-- Creator: CorelDRAW -->
<svg xmlns="http://www.w3.org/2000/svg" xml:space="preserve" width="22.0576mm" height="8.64mm" version="1.1" style="shape-rendering:geometricPrecision; text-rendering:geometricPrecision; image-rendering:optimizeQuality; fill-rule:evenodd; clip-rule:evenodd"
viewBox="0 0 2124.66 832.23"
 xmlns:xlink="http://www.w3.org/1999/xlink"
 xmlns:xodm="http://www.corel.com/coreldraw/odm/2003">
 <defs>
  <style type="text/css">
   <![CDATA[
    .fil0 {fill:#FEFEFE}
    .fil1 {fill:#FEFEFE;fill-rule:nonzero}
   ]]>
  </style>
 </defs>
 <g id="Layer_x0020_1">
  <metadata id="CorelCorpID_0Corel-Layer"/>
  <g id="_1356977561040">
   <g>
    <path class="fil0" d="M463.02 250.52l-0.05 -0.87c4.7,-55.93 10.81,-50.59 29.97,-93.44 7.48,-16.73 -9.67,-13.3 -17.48,-25.27 -3.35,-5.12 -4.39,-10.06 -10.89,-8.1 -8.18,2.46 -11.14,2.42 -16.13,6.16 -27.57,20.66 -38.79,-1.17 -52,-4.16 -5.03,-1.14 -6.95,-2.56 -11.24,-3.56 -2.15,3.21 -4.21,5.17 -6.89,9.15 -11.9,17.7 -29.77,4.31 -11.53,38.88 4.77,9.03 13.03,24.26 16.45,34.14 3.8,10.97 5.56,22.61 6.34,35.53l42.18 65.37 31.29 -53.83zm-46.91 -250.52c15.67,0 31.13,0.9 46.35,2.58 -0.33,0.66 -0.66,1.37 -1.18,2.33 -9.97,18.84 -46.42,16.78 -59.61,6.11l-6.77 -10.49c7.02,-0.35 14.1,-0.53 21.21,-0.53zm56.7 3.86c4.79,0.65 9.55,1.38 14.28,2.19 6.56,3.4 12.58,8.94 16.54,11.59 -1.03,4.42 -2.47,5.8 -2.47,11.11 0,11.87 8.44,8.79 4.93,23.45 -17.49,4.07 -18.96,-2.47 -25.9,-2.47 -9.6,0 -9.95,12.74 -18.18,20.07 -13.23,11.8 -53.42,11.32 -66.65,-0.65 -6.51,-5.89 -6.21,-19.43 -17.58,-19.43 -5.27,0 -1.45,3.7 -20.98,3.7 -11.43,0 0.27,-20.51 0.54,-21.7 1.07,-4.78 -1.64,-9.4 -1.77,-15.32 8.76,-4.63 22.21,-18.47 34.06,-10.63 4.96,3.27 7.57,7.99 13.79,12.14 13.87,9.28 16.28,7.14 36.04,7.14 11.69,0 29.25,-19.07 30.68,-19.94 0.88,-0.53 1.76,-0.94 2.66,-1.24zm218.59 100.23c9.58,8.47 18.77,17.35 27.54,26.64 -8.57,-0.69 -16.36,-2.06 -26.55,-2.06 -39.29,0 -36.84,1.53 -73.31,8.11 -36.06,6.52 -75.67,7.49 -112.3,1.07 -13.98,-2.45 -27.82,-10.57 -27.82,-26.45 0,-27.75 33.91,-14.2 44.09,-12.02 7.5,1.61 15.73,3.51 24.48,5.13 46.5,8.7 67.9,6.4 111.35,1.74 10.26,-1.1 21.09,-1.9 32.53,-2.17zm40.58 41.13c3.33,3.89 6.59,7.83 9.78,11.84 1.27,11.29 -16.06,22.14 -16.06,28.37 0,9.4 9.05,6.83 14.65,4.76 24.53,-9.07 8.79,18.47 8.79,24.85 0,21.12 12.65,28.04 15.94,39.67 3.84,13.58 -10.96,0.91 -25.32,20.04 -3.24,4.32 -5.62,8.39 -7.89,13.08 -12.76,26.32 -23.92,2.47 -25.85,-22.27 -1.94,-24.76 2.23,-28.1 -12.59,-47.86 -5.98,-7.98 -8.68,-14.64 -11.97,-23.8 -5.39,-15 -12.92,-24.31 -14.98,-33.14 3.44,-2.3 5.2,-3.7 11.11,-3.7 16.68,0 10.35,7.88 23.44,14.8 13.17,-8.82 17.5,-33.71 30.96,-26.63zm14.8 18.27c6.91,9.04 13.48,18.34 19.65,27.93 -7.37,-0.92 -16.11,-5.65 -19.85,-10.85 -5.12,-7.12 -3.16,-12.02 0.2,-17.09zm21.62 31.08c40.43,64.15 63.83,140.1 63.83,221.53 0,46.5 -7.63,91.23 -21.7,132.98 -0.39,-11.58 -0.99,-22.39 -0.92,-34.27 0.05,-9.98 -1.31,-14.68 -1.25,-24.66l-4.93 -122.15c0.06,-28.52 -4.97,-69.52 -13.56,-88.83 -7.74,-17.39 -13.26,-19.61 -20.46,-30.13 -4.67,-6.81 -12.86,-26.94 -12.86,-37.73 0,-11.31 5.79,-14.98 11.86,-16.75zm-23 475.94c-2.53,3.27 -5.11,6.53 -7.73,9.73 1.96,-8.66 4.78,-19.41 6.02,-27.76 0.69,-4.63 0.63,-9.31 3,-13.05l-1.28 30.8 0 0.28zm-13.02 16.01c-23.72,27.71 -51.01,52.27 -81.18,72.96 -21.06,-4.42 -43.09,-24.98 -55.97,-38.91l-7.87 -9.4c-8.45,-10.36 -35.1,-54.71 -48.67,-80.55l9.75 0c3.56,3.82 7.11,7.49 10.54,10.23 18.94,15.16 27.66,22.86 50.58,32.09 1.85,0.75 8.01,2.76 9.75,3.82l3.77 3.63c13.29,14.71 23.42,23.2 43.42,23.2 30.26,0 47.37,-48.91 54.77,-71.09 5.15,-15.44 8.42,-34.03 10.99,-51.92 1.22,-8.52 2.75,-18.8 3.36,-28.72 0.36,-5.94 1.61,-8.05 2.4,-13.64 0.7,-5.03 1.27,-7.73 1.27,-13.53l1.23 0c0,54.67 10.23,90.72 -2.96,143.87 -1.6,6.45 -3.26,12.42 -5.17,17.96zm-86.98 76.86c-6.19,4.09 -12.49,8.03 -18.92,11.8 -18.03,-16.73 -31.48,-34.75 -44.42,-56.24 -2.92,-4.85 -11.88,-19.63 -13.03,-23.98 2.97,1.98 6.5,7.19 9.17,10.57l18.25 21.23c13.16,13.34 28.45,24.66 44.65,34.31 1.77,1.06 3.18,1.79 4.31,2.32zm-151.46 61.55c-5.88,1.11 -11.78,2.1 -17.73,2.96 -4.38,-0.51 -7.73,-1 -13.26,-0.94 -12.01,0.11 -22.4,-1.21 -35.8,-1.21l-37.05 1.19c-9.34,-0.03 -16.07,1.98 -20.55,2.69 -1.8,-0.2 -3.61,-0.39 -5.41,-0.62 -2.26,-1.96 -2.05,-7.73 0.18,-21.72 0.69,-4.39 3.49,-11.15 -2.56,-11.15l-33.32 1.24c-16.71,-1.42 -18.32,-30.85 -4.93,-30.85l28.41 1.32c13.13,-0.11 10.92,-3.37 15.63,-6.64 16.3,-11.31 72.15,-8.37 95.18,-5.59 12.65,1.52 21.51,3.31 26.11,12.42l41.94 -1.51c4.61,-0.2 7.41,3.8 7.41,8.63 0,29.64 -11.78,20.98 -48.12,20.98 0,5.92 1.56,10.01 2.28,15 0.93,6.5 1.49,10.89 1.6,13.81zm-51.82 6.46c-8.6,0.53 -17.26,0.83 -26,0.83 -6.86,0 -13.67,-0.17 -20.45,-0.5l25.26 -1.11c5.38,-0.08 13,0.3 21.19,0.78zm-223.05 -48.71c-8.14,-4.39 -16.11,-9.04 -23.91,-13.95 8.89,-2.5 18.65,-7.65 23.47,-10.87 13.45,-8.93 25.07,-17 36.73,-28.67 4.1,-4.1 5.78,-7.14 9.83,-11.13 4.35,-4.3 6.5,-7.22 10.47,-11.74 1.77,-2.01 3.31,-4.15 4.79,-6.31 2.78,-4.06 2.09,-4.08 4.81,-5.07 -2.44,9.11 -25.86,43.93 -31.37,51.29 -9.43,12.58 -22.02,26.41 -34.82,36.44zm-54.72 -35.28c-1.2,-0.92 -2.42,-1.83 -3.61,-2.76 -23.79,-19.25 -37.59,-50.59 -45,-80.03 -11.37,-45.2 -1.96,-91.48 -1.96,-139.92l1.23 0c0,6.18 0.56,9.01 1.42,14.63l5.28 39.14c2.46,17.53 5.4,33.7 9.85,49.37 2.13,7.49 4.65,15 7.41,22.19 13.84,36.17 41.83,74.69 81.79,40.87 18.68,-15.8 1.55,-9.06 25.74,-18.67 4.45,-1.77 6.43,-2.39 10.18,-4.63 3.42,-2.05 6.05,-3.08 9.58,-5.21 17.32,-10.43 29.75,-22.25 39.18,-31.76l9.62 0c-2.05,3.66 -4.09,7.11 -5.52,9.65 -2.41,4.3 -3.96,7.84 -6.18,12.33 -14.3,28.85 -31.17,54.78 -53.57,77.2 -20.85,20.89 -45.78,38.98 -74.37,24.41 -3.9,-1.99 -7.58,-4.28 -11.07,-6.81zm-39.87 -34.52c-4.59,-4.52 -9.08,-9.14 -13.47,-13.86 -2.82,-20.04 -3.41,-54.62 -3.41,-60.82 2.72,3.13 3.37,16.94 4.22,21.69 1.49,8.43 3.37,13.97 5.12,22.01l7.53 30.98zm-105.58 -172.47c-12.28,-39.25 -18.89,-81.01 -18.89,-124.3 0,-81.87 23.66,-158.21 64.49,-222.58 0.57,0.62 1.24,1.28 2.16,1.99 7.73,6 23.77,2.71 21.79,21.29 -4.06,38.27 -27.38,41.69 -40.78,76.46 -12.71,32.99 -16.45,116.17 -20.45,154.74l-8.31 92.4zm50.47 -354.37c7.12,-10.71 14.73,-21.08 22.79,-31.06 1.71,0.77 3.42,1.76 6.15,3.96 9.96,8.03 9.8,19.53 -2.82,27.94 -10.95,7.31 -21.47,4.9 -26.11,-0.84zm41 -52.17c9.65,-10.44 19.83,-20.39 30.5,-29.81 2.98,-0.08 6.6,-0.07 11.14,-0.07 40.08,0 60.21,6.17 102.39,6.17 43.31,0 91.76,-16.04 101.17,-16.04 24.57,0 24.56,23.28 10.19,36.09 -19.53,17.43 -106.47,11.88 -132.83,6.36 -42.76,-8.96 -79.84,-11.17 -122.56,-2.71zm305.55 384.15c1.44,3.72 2.98,7.34 4.61,10.82 2.32,4.94 2.75,8.08 7.83,9.43l8.26 -16.53 -11.99 -18.67 -8.72 14.95zm20.95 4.09c-0.96,6.73 -5.62,15.86 -9.74,18.63 -6.05,-1.62 -7.96,-7.71 -10.01,-13.44 -0.86,-2.4 -1.78,-4.53 -2.84,-6.46l-20.98 35.98c19.39,-3.66 45.66,-3.36 61.87,-0.93 1.32,0.19 2.61,0.46 3.9,0.77l-22.2 -34.54zm308.56 116.09l0.38 -0.37c-0.03,0.02 -0.49,0.24 -0.38,0.37zm-372.59 117.21c7.45,-3.57 38.22,-6.16 50.59,-6.16 20.11,0 36.84,2.39 53.05,6.16 -3.93,-14.74 -77.34,-9.95 -89.17,-7.74 -7.22,1.35 -12.77,1.42 -14.47,7.74zm149.28 -594.66l-25.9 -1.23c-2.06,8.84 -10.28,18.3 -12.34,27.14 6.25,0 6.72,1.23 13.57,1.23l1.96 0 6.12 -10.51 54.45 0c7.21,-3.76 14.19,-8.83 21.08,-15.7 4.06,-4.04 12.08,-12.84 12.63,-19.44 -9.2,4.41 -34.49,0.37 -41.34,3.07 -2.41,0.95 -7.48,7.44 -12.04,10.16 -5.22,3.12 -10.29,5.27 -18.18,5.27zm-165.53 27.14l0.21 0c6.85,0 7.32,-1.23 13.57,-1.23 -2.06,-8.84 -10.28,-18.3 -12.34,-27.14 -11.12,0 -26.9,4.45 -41.77,-2.65 -7.4,-3.53 -7.87,-7.31 -12.78,-10.65 -6.99,-4.75 -33.77,0.41 -42.91,-3.97 0.92,11.03 20.38,27.62 29.21,32.48 1.65,0.92 3.35,1.8 5.11,2.66l54.92 0 6.78 10.51zm7.62 456.48c0,8.79 12.34,4.85 12.34,24.67 0,7.41 -3.71,12.33 -3.71,19.75 0,5.89 6.89,2 23.63,0.17 14.73,-1.61 56.72,-1.13 72.15,1.56 6.92,1.2 10.34,4.28 10.34,-2.98 0,-6.9 -2.48,-8.56 -2.48,-24.67 0,-11.78 11.11,-9.94 11.11,-18.5 0,-17.45 -123.37,-18.66 -123.37,0zm-166.55 -500.9c0,32.51 17.23,58.75 42.96,73.64l-25.61 -39.73 24.15 0c-1.83,-1.93 -3.51,-4 -5.03,-6.22 -6.88,-10.09 -8.09,-16.44 -8.09,-32.61 -9.17,-2.14 -16.82,-3.71 -28.38,-3.71l0 8.64zm187.41 88.54c0.1,-1.51 0.12,-3.44 0.12,-5.89 0,-9.56 -4.79,-18.93 -8.63,-24.67 -4.92,0 -7.13,0.6 -10.58,0.96l19.09 29.59zm105.78 -29.39c-5.14,-0.26 -7.11,-1.17 -13.13,-1.17 -7.89,11.78 -8.64,18.33 -8.64,32.08 0,1.58 0.75,2.55 1.97,3.15l19.79 -34.06zm123.13 14.04c4.85,-2.87 9.63,-6.19 14.45,-10.09 21.08,-17.01 28.17,-42.66 28.17,-71.75 -37.91,0 -26.81,6.43 -28.84,18.04 -1.72,9.86 -6.37,17.94 -12.95,24.5l23.68 0 -24.51 39.29zm-253.46 489.39c-13.47,0 -27.33,-3.42 -37.02,1.23 -6.56,28.16 20.27,19.74 49.35,19.74 4.91,0 3.12,2.78 1.79,6.51 -1.76,4.97 -1.79,4.52 -1.79,10.76 10.55,0 18.83,-2.47 30.85,-2.47l40.71 0c13.24,0 22.59,2.47 34.55,2.47 0,-12.97 -2.29,-9.28 -2.48,-17.27l29.62 1.32c20.08,0.05 19.74,-6.15 19.74,-17.36 0,-10.08 -26,-4.93 -38.25,-4.93 -1.46,-5.5 -5.37,-6.07 -11.05,-7.46 -5.11,-1.25 -9.97,-1.83 -15.99,-2.52l-35.88 -2.42c-7.85,0 -10.16,1.28 -17.23,1.33 -9.14,0.07 -26.11,1.44 -34.19,4.06 -9.04,2.94 -10.1,7.01 -12.73,7.01zm-252.92 -547.78c0,13.54 16.04,19.36 16.04,27.14 0,13.48 -17.62,3.49 -19.3,3.12 -17.6,-3.83 -4.14,21.12 -4.14,26.49 0,21.23 -13.14,26.66 -17.27,44.41 10.68,7.15 14.51,-0.89 26.65,15.3 7.45,9.93 11.32,24.18 17.76,24.18 12.47,0 14.26,-21.21 15.71,-32.4 5.19,-39.89 -6.32,-17.81 16.78,-54.78 5.75,-9.21 9.21,-22.94 19.77,-41.97 0.76,-1.37 1.62,-3.11 1.94,-4.28 2.47,-8.85 -6.63,-8.45 -13.48,-8.45 -9.98,0 -8.89,9.05 -19.75,14.8 -9.32,-6.25 -11.03,-15.26 -18.75,-23.19 -12.41,-12.74 -21.95,5.47 -21.95,9.62zm266.78 431.01c5.56,13.2 -1.53,30.23 -1.53,39.04 0,6.44 5.25,1.85 17.6,0.33 19.76,-2.43 60.37,-2.49 79.39,1.47 6.23,1.3 9.12,4.16 9.12,-3.03 0,-8.81 -5.91,-28.09 0.01,-39.47l-17.74 -27.63c-8,-1.4 -15.88,-1.98 -20.52,-1.98 -7.47,0 -30.38,-0.5 -49.2,1.91l-17.13 29.37zm320.48 -334.78c0,62.57 -55.76,101.17 -114.74,101.17 -19.82,0 -35.94,-2.36 -49.2,-5.87l-15.43 24.73c27,11.54 57.96,15.76 88.79,10.23 54.27,-9.71 97.99,-53.61 97.99,-106.81l0 -20.98c0,-12.44 -7,-35.89 -13.57,-40.71 0.5,6.05 6.16,19.5 6.16,38.24zm-542.84 6.17l0 16.04c0,49.12 33.38,86.57 76.47,102.41 35.57,13.08 76.97,8.78 107.54,-3.53 1.8,-0.72 3.56,-1.47 5.3,-2.24l-15.99 -24.8c-44.64,13.24 -93.46,9.62 -130.32,-19.85 -30.71,-24.56 -42.13,-63.56 -31.94,-102.6 1.01,-3.87 2.14,-5.5 2.5,-9.83 -8.54,6.25 -13.57,31.45 -13.57,44.41zm516.93 -43.18c0,28.59 -20.6,38.69 -41.78,45.81 -13.93,4.68 -30.69,7.83 -48.2,9.48l-22.33 35.78c30.27,-1.19 60.65,-8.51 83.43,-21.26 40.42,-22.62 54.05,-53.06 35.59,-99.96 -2.65,-6.71 -12.13,-23.35 -16.58,-26.6 -4.92,21.13 -7.61,7.42 1.66,26.71 3.44,7.16 8.21,20.28 8.21,30.04zm-498.42 4.93c0,32.09 18.02,50.69 42.79,64.56 24.8,13.88 55.58,20.94 86.31,21.64l-23.19 -35.98c-31.72,-2.55 -62.48,-9.67 -77.24,-23.37 -30.86,-28.64 -0.39,-68.57 0.16,-73.99l-4.14 -14.55c-10.08,7.38 -24.68,40.83 -24.68,61.69zm87.6 -117.21c43.38,0 26.52,-5.33 59.47,-35.52 7.71,-7.07 24.78,-8.51 35.18,0.1 1.7,1.4 2.15,2.13 3.88,3.53 22.36,18.08 20.56,33.93 31.5,41.28 7.18,4.83 16.37,7.89 26.65,7.89 9.77,0 8.86,-6.42 13.57,-9.86 1.54,18.45 32.29,6.25 37.26,2.71 10.23,-7.31 7.51,-15.7 22.84,-32.68l3.92 -4.71c3.94,-4.51 12.48,-11.55 18.99,-13.14 31.35,-7.68 44.21,33.27 55.87,37.26 6.04,2.06 21.06,3.16 28.91,3.16 -1.56,-5.88 -17.45,-21.1 -22.5,-26.85 -12.71,-14.44 -19.16,-21.61 -35.99,-34.34 -6.52,-4.93 -18.63,-11.37 -29.1,-11.61 1.58,6.79 3.7,4.12 3.7,13.57 0,8.65 -7.37,12.34 -16.04,12.34 -12.84,0 -15.85,-13.78 -25.54,9.02 -11.68,27.49 -42.32,3.81 -42.32,31.7l-2.47 0c0,-20.45 -16.03,-13.7 -29.51,-18.6 -11.75,-4.28 -12.36,-14.09 -15.65,-20.12 -6.32,-11.55 -12.41,-1.99 -26.39,-1.99 -6.2,0 -12.34,-6.14 -12.34,-12.34 0,-6.81 2.47,-8.25 3.71,-13.57 -23.75,1.97 -44.27,23.7 -60.17,39.77 -3.85,3.89 -26.19,28.41 -27.42,33.02zm-130.78 238.11c0,43.77 38.74,78.04 68.22,103.27 20.64,17.67 48.19,37.35 75.93,38.83 29.06,1.55 26.32,-12.43 55.96,-31.05l27.32 -43.71c-21.07,12.45 -53.49,25.2 -78.15,25.2 -29.18,0 -34.14,-0.15 -60.06,-13.97 -12.67,-6.75 -23.65,-17.3 -33.4,-27.05 -20.78,-20.78 -38.56,-49.98 -38.56,-82.36 0,-8.07 2.31,-12.72 2.47,-19.74 -8.78,6.42 -19.74,34.23 -19.74,50.58zm582.32 -30.84c0,31.81 -17.53,61.34 -37.93,81.74 -10.47,10.46 -19.37,19.6 -33.22,27.23 -25.11,13.84 -30.68,14.4 -59.62,14.4 -23.35,0 -54.97,-11.23 -78.32,-24.36l28.87 44.93c5.46,3.28 10.78,6.86 15.25,11.17 5.26,5.09 9.66,11.02 16.56,14.28 29.4,13.91 65.62,-9.66 87.69,-27.8 36.3,-29.83 98.39,-79.98 71.84,-139.13 -2.64,-5.88 -9.04,-18.88 -13.57,-22.2 0.15,7.01 2.47,11.66 2.47,19.74zm-111.03 214.68c-9.53,0 -17.83,-0.93 -25.65,-2.98l31.33 48.77c14.9,-3.81 31.4,-11.43 40.16,-15.99 50.3,-26.2 87.4,-76.5 87.4,-135.9l0 -18.51c0,-14.5 -3.71,-23.93 -3.71,-37.01l-2.47 0c0,5.94 -1.16,9.73 -3.28,13.99 -8.56,17.09 1.97,88.46 -67.72,130.9 -11.43,6.95 -38.37,16.73 -56.06,16.73zm-476.22 -127.08c0,32.27 0.13,52.56 13.98,82.26 10.3,22.1 30.36,46.98 50.66,60.37 19.06,12.58 42.41,26.32 65.89,30.89l31.36 -50.17c-8.72,2.57 -18.03,3.74 -28.65,3.74 -16.62,0 -44.93,-9.9 -55.49,-16.08 -69.08,-40.37 -60.66,-116.64 -67.87,-130.76 -2.26,-4.44 -3.72,-8.01 -3.72,-14.79l-2.47 0c0,12.72 -3.7,21.04 -3.7,34.54zm521.87 217.14c-4.13,0 -8.15,-0.31 -12.07,-0.87l9.16 14.26 -84.88 0 0.91 0.7c25.74,20 56.91,53.08 100.47,30.34l20.05 -14.5 16.25 -18.29c38.04,-50.66 48.11,-102.4 42.7,-168.4l-1.3 -27.08 -2.19 6.46c-1.4,9.21 -0.1,10.15 -4.39,21.61 -2.63,7 -1.66,19.82 -2.05,27.46 -0.41,7.95 -2.47,22.52 -4.22,30.32 -7.45,33.11 -13.98,47.4 -33.49,72.61 -7.72,9.96 -28.16,25.37 -44.95,25.37zm-528.04 -133.24c0,50.66 5.99,81.84 29.22,123.76 10.42,18.81 30.89,43.88 51.78,54.33 39.06,19.54 66.63,-4.56 92.26,-24.56 2.14,-1.68 4.97,-4.06 8.22,-6.89l-80.41 0 9.18 -14.69c-14.02,2.75 -28.1,1.25 -41.42,-7.08 -5.97,-3.75 -14.76,-10.12 -18.97,-15.59 -27.35,-35.52 -31.66,-54.04 -38.26,-99.92 -1.72,-11.98 1.25,-21.4 -2.48,-32.07 -6.84,-19.52 -1.71,-22.19 -6.67,-27.89 0,8.16 -0.76,15.67 -1.22,24.68l-1.24 25.91z"/>
    <polygon class="fil1" points="515.2,614.85 423.98,472.88 341.21,614.85 245.76,614.85 378.67,402.2 243.94,193.17 341.21,193.17 432.43,334.53 514.6,193.17 610.04,193.17 477.74,405.22 612.46,614.85 "/>
   </g>
   <path class="fil1" d="M936.39 383.91c8.89,-14.49 20.5,-25.84 34.82,-34.08 14.32,-8.23 30.7,-12.34 49.13,-12.34l0 72.6 -18.27 0c-21.73,0 -38.11,5.11 -49.13,15.31 -11.03,10.21 -16.55,27.99 -16.55,53.34l0 136.31 -69.14 0 0 -273.61 69.14 0 0 42.47z"/>
   <path id="_1" class="fil1" d="M1048.99 477.25c0,-27.65 5.52,-52.19 16.55,-73.59 11.03,-21.4 26.01,-37.86 44.93,-49.38 18.94,-11.53 40.09,-17.29 63.47,-17.29 20.41,0 38.28,4.12 53.58,12.35 15.32,8.24 27.58,18.6 36.8,31.11l0 -39.01 69.64 0 0 273.61 -69.64 0 0 -40c-8.89,12.84 -21.15,23.45 -36.8,31.85 -15.63,8.4 -33.66,12.59 -54.08,12.59 -23.05,0 -44.04,-5.92 -62.98,-17.77 -18.93,-11.86 -33.91,-28.57 -44.93,-50.14 -11.03,-21.57 -16.55,-46.34 -16.55,-74.32zm215.33 0.98c0,-16.79 -3.29,-31.19 -9.87,-43.21 -6.59,-12.02 -15.48,-21.24 -26.67,-27.65 -11.19,-6.42 -23.21,-9.63 -36.05,-9.63 -12.84,0 -24.7,3.13 -35.56,9.38 -10.87,6.26 -19.67,15.39 -26.42,27.41 -6.75,12.01 -10.12,26.26 -10.12,42.72 0,16.46 3.37,30.86 10.12,43.21 6.75,12.35 15.64,21.82 26.67,28.4 11.03,6.59 22.8,9.88 35.31,9.88 12.84,0 24.86,-3.21 36.05,-9.63 11.19,-6.42 20.08,-15.64 26.67,-27.65 6.58,-12.02 9.87,-26.42 9.87,-43.22z"/>
   <polygon id="_2" class="fil1" points="1711.28,270.31 1584.84,615.04 1500.89,615.04 1374.45,270.31 1448.54,270.31 1543.36,544.42 1637.69,270.31 "/>
   <path id="_3" class="fil1" d="M1787.82 308.84c-12.18,0 -22.31,-3.87 -30.37,-11.61 -8.07,-7.73 -12.1,-17.37 -12.1,-28.9 0,-11.52 4.03,-21.15 12.1,-28.89 8.06,-7.73 18.19,-11.61 30.37,-11.61 12.18,0 22.31,3.87 30.38,11.61 8.06,7.73 12.1,17.37 12.1,28.89 0,11.53 -4.04,21.16 -12.1,28.9 -8.07,7.73 -18.2,11.61 -30.38,11.61zm34.08 32.6l0 273.61 -69.14 0 0 -273.61 69.14 0z"/>
   <polygon id="_4" class="fil1" points="2124.66,270.31 2124.66,326.12 2032.79,326.12 2032.79,615.04 1963.65,615.04 1963.65,326.12 1871.79,326.12 1871.79,270.31 "/>
  </g>
 </g>
</svg>
